<?xml version="1.0" encoding="utf-8"?>
<svg version="1.1"
    xmlns="http://www.w3.org/2000/svg"
    xmlns:xlink="http://www.w3.org/1999/xlink"
    x="0px" y="0px"
    width="59px"
    height="90px"
    viewBox="24 13 47 71"
    style="enable-background:new 0 0 96 96;" 
    xml:space="preserve">
    <path d="M64.3,15.5H31.8c-3,0-4.1,1.1-4.1,4.1v60.9L48,67.9l20.3,12.6V19.6
        C68.3,16.6,67.2,15.5,64.3,15.5z M61.1,32.8l-7.6,5.5l2.9,8.8c0.2,0.9-0.1,1.1-0.8,0.7L48,42.3l-7.6,5.4c-0.8,0.4-1,0.2-0.8-0.7
        l2.9-8.8l-7.6-5.5c-0.7-0.7-0.6-0.9,0.4-0.9l9.3-0.1l2.8-8.8h1l2.8,8.8l9.3,0.1C61.6,31.8,61.8,32.2,61.1,32.8L61.1,32.8z"
        style="fill:currentColor"/>
</svg>
