<?xml version="1.0" encoding="UTF-8"?>
<svg  width="100px" height="25px" viewBox="0 5 70 15" version="1.1" xmlns="http://www.w3.org/2000/svg" xmlns:xlink="http://www.w3.org/1999/xlink">
    <g id="Symbols" stroke="none" stroke-width="1" fill="none" fill-rule="evenodd">
        <g id="vermont-logo">
            <path d="M47.3026718,12.010525 C47.4306616,12.004525 47.5077608,11.982775 47.6008906,11.846525 L47.3026718,11.547525 L47.3347328,11.713775 C47.3400763,11.771525 47.2454198,11.885525 47.3026718,12.010525 Z M55.3627226,16.019275 L55.0950382,16.086025 C54.8288804,16.087775 54.8777354,16.038775 54.7283715,15.952025 C54.7505089,15.779025 54.8525445,15.801525 54.928117,15.687525 L55.2955471,15.789525 L55.5655216,15.890025 L55.8314249,15.920525 L56.0647583,16.153525 L55.3627226,16.019275 Z M55.5975827,15.394025 L55.6652672,15.627025 L55.5311705,15.659275 L55.5975827,15.394025 Z M23.836514,13.224525 C23.6253181,13.221775 23.7153944,13.215025 23.6156489,13.129025 C23.6840967,13.056275 23.7573791,13.087775 23.836514,13.094525 L23.836514,13.224525 Z M13.9461832,14.671275 L13.6818066,14.409775 C13.7380407,14.395525 13.8288804,14.340025 13.9820611,14.475525 L14.2169211,14.639025 L13.9461832,14.671275 Z M9.79961832,15.394025 L9.56704835,15.528025 C9.50394402,15.577525 9.48715013,15.593275 9.13091603,15.988025 L8.76374046,16.283025 L8.49529262,16.412525 C8.41590331,16.391525 8.42277354,16.380275 8.36170483,16.183275 C8.50139949,16.149025 8.56526718,16.062025 8.63091603,15.890025 L8.89631043,15.559525 L9.39936387,15.364025 C9.44287532,15.328775 9.42226463,15.281525 9.49936387,15.097525 L9.66704835,15.035275 L9.89961832,15.003025 L10.1344784,14.970025 C10.1085242,15.215525 9.99478372,15.220275 9.79961832,15.394025 Z M7.22430025,17.434275 L7.05737913,17.630525 L6.52201018,18.220025 C6.48409669,18.264275 6.39783715,18.258275 6.05407125,18.518025 L5.75152672,18.518025 C5.76679389,18.188025 5.9846056,17.999025 6.22022901,17.892775 L6.75687023,17.532525 C6.82862595,17.487525 6.95992366,17.519775 7.0894402,17.434275 C7.14440204,17.337025 7.04287532,17.239525 7.5278626,17.037275 C7.49198473,17.331775 7.2846056,17.229775 7.22430025,17.434275 Z M70.3502545,23.418525 L70.1161578,23.187025 L69.8812977,22.990025 L69.7807888,22.755025 L69.3141221,22.396025 C69.298855,22.200525 69.2273537,22.082025 69.0800254,21.836525 L68.8438931,21.573525 L68.5784987,21.475275 C68.4398219,21.424525 68.4886768,21.538275 68.344402,21.408025 C68.2889313,21.327275 68.3955471,21.213775 68.1751908,20.949525 L67.9441476,20.820025 L67.7064885,20.753525 L67.5072519,20.391525 L67.1375318,20.098025 L66.7380407,19.765525 L66.5026718,19.666525 L66.1342239,19.275525 L65.6349873,18.978775 L65.2332061,18.550275 L64.9647583,18.386275 L64.5965649,18.156525 L64.1627226,17.827775 C63.9110687,17.760275 63.7326972,17.585025 63.3265903,17.434275 C63.2647583,17.203525 63.1113232,17.302525 62.8225191,17.072525 L62.5899491,16.973025 C61.6583969,16.393025 61.4220102,16.082275 60.2800254,15.687525 L60.0818066,15.461525 C59.971374,15.390275 59.6594148,15.383525 59.512341,15.364025 C59.4970738,15.290525 59.4902036,15.268775 59.342112,15.131025 C59.2263359,15.118275 59.1835878,15.086275 59.0784987,15.067525 C59.0181934,14.833775 58.8314249,14.773025 58.2405852,14.639025 L57.771883,14.310025 C56.9759542,14.026775 56.8675573,13.470525 55.5975827,13.094525 L55.1293893,12.962775 C55.0835878,12.755775 54.9784987,12.761775 54.7952926,12.600775 L54.4942748,12.469025 L54.1924936,12.369525 L53.9576336,12.239775 L53.6250636,12.108025 L53.1881679,12.108025 L52.7553435,11.812025 L52.2520356,11.745275 L51.9189567,11.614275 L51.2159033,11.484775 L50.8487277,11.450275 L50.512341,11.647275 L50.8487277,11.681775 L51.0810433,11.777525 L51.6171756,11.846525 L52.1538168,12.040525 C52.1568702,12.040525 52.1642494,11.988025 52.387659,12.173775 C52.2062341,12.170025 52.1698473,12.142275 52.0530534,12.108025 L51.7830789,12.075775 L51.4507634,12.040525 C51.347201,12.017275 51.2388041,12.091525 51.1810433,12.108025 L50.8812977,12.404525 C50.7965649,12.397025 50.7639949,12.400775 50.6113232,12.272025 L50.1792621,12.040525 L49.7087786,12.075775 C49.628117,12.096025 49.5296438,12.063775 49.4731552,12.010525 C49.4268448,11.996275 48.9701018,12.145525 48.6385496,12.469025 L48.2024173,12.339275 L47.9034351,12.307275 C47.7922392,12.275775 47.5711196,12.349775 47.5001272,12.369525 L46.7645038,12.569275 L46.3665394,12.733525 L46.0965649,12.797775 L45.8632316,12.962775 L45.5278626,12.962775 L45.2283715,12.896775 C45.0779898,12.854775 45.1077608,12.769275 44.857888,12.536525 L44.4225191,12.339275 L44.187659,12.239775 L43.7553435,12.040525 C43.585369,12.036025 43.5197201,12.039025 43.4861323,12.173775 C43.4321883,12.231525 43.4487277,12.422525 43.4520356,12.536525 L42.9510178,12.404525 C41.9446565,12.060775 41.7891858,11.844275 40.912341,11.417275 L40.6754453,11.287775 C40.5975827,11.239025 40.5115776,11.281775 40.4108142,11.218775 L40.1744275,11.188025 L39.9418575,11.121525 L39.5721374,10.729025 L39.3069975,10.466025 L38.9052163,10.334275 L38.3698473,10.169525 L37.9680662,9.872025 L37.3657761,9.708775 L37.0980916,9.576275 L36.7970738,9.478025 L36.5296438,9.215025 L36.028626,9.049525 L35.5917303,8.786525 L35.2922392,8.720775 L34.9902036,8.688525 C34.8759542,8.646025 34.8171756,8.525275 34.4886768,8.327525 L34.2545802,8.227275 L33.7535623,8.263025 C33.7301527,8.163525 33.6881679,8.112525 33.6522901,8.031525 L33.0828244,7.833775 L32.4477099,7.670775 L32.044402,7.539525 L31.9466921,7.306525 L31.7105598,7.242275 L31.5777354,7.015275 L31.2759542,6.945525 L30.8756997,6.584525 L30.6416031,6.519275 L30.3069975,6.355275 L29.8380407,6.058525 L29.5711196,6.025025 L29.3388041,5.896775 L28.9003817,5.829525 L28.8347328,5.532775 C28.7858779,5.366525 28.6243003,5.429525 28.5352417,5.302775 C28.3141221,5.297025 28.2075064,5.301525 28.0647583,5.237775 C27.9787532,5.219025 27.7156489,5.106775 27.5624682,5.204025 C27.5143766,5.231775 27.4494911,5.291775 27.1622137,5.174025 L26.5270992,5.204025 L26.2937659,5.302775 L25.8240458,5.369525 C25.7746819,5.359025 25.666285,5.252775 25.523028,5.369525 C25.4306616,5.449775 25.3530534,5.482025 25.2227735,5.568025 L24.7866412,5.666275 L24.4868957,5.666275 L24.2535623,5.896775 L23.8487277,6.126025 C23.7787532,6.085775 23.5347328,5.924525 23.2479644,6.092525 L22.8461832,6.258025 C22.5998728,6.270775 22.5428753,6.368775 22.3782443,6.488775 L21.9085242,6.651275 L21.476972,6.878275 L21.2423664,7.045275 L20.9403308,7.209275 L20.3372774,7.344025 C20.2426209,7.316275 20.0484733,7.335775 19.9049618,7.406275 L19.7006361,7.738025 C19.6533079,7.798775 19.6204835,7.842275 19.4360051,8.031525 C19.4360051,8.133525 19.4438931,8.201025 19.4688295,8.263025 C19.379771,8.301275 19.3164122,8.345525 19.1342239,8.425775 L18.8993639,8.227275 L18.6655216,8.227275 C18.512341,8.278775 18.3726463,8.390525 18.098855,8.493025 C18.0790076,8.650525 18.0326972,8.621025 18.098855,8.822025 L18.5639949,8.854275 L18.8019084,8.822025 L19.2013995,8.557525 C19.3843511,8.555275 19.4652672,8.515525 19.6344784,8.361275 L19.9362595,8.294525 C20.0255725,8.243025 20.1237913,7.948525 20.1367684,7.802275 L20.5721374,7.833775 C20.7245547,7.797025 20.7505089,7.899775 20.8723919,7.833775 L21.2726463,7.406275 L21.5082697,7.306525 C21.6980916,7.236025 21.8550891,7.370275 22.0792621,7.306525 C22.2553435,7.259525 22.5169211,7.209275 22.6792621,7.015275 L23.0474555,6.718525 L24.05,6.621275 L24.3861323,6.750025 C24.1622137,6.760525 24.0965649,6.896775 23.9502545,6.980775 L23.9502545,7.209275 L23.0474555,7.276525 C22.1716285,7.359775 21.6006361,8.055525 20.7726463,8.227275 L20.4377863,8.493025 C20.1026718,8.496775 20.1001272,8.663025 19.7357506,8.822025 C19.6673028,8.879525 19.5428753,8.844275 19.3332061,9.049525 L19.033715,9.182775 L18.8019084,9.215025 L18.6311705,9.545525 L18.3970738,9.643525 L18.4314249,9.905775 C18.2153944,9.909525 18.2087786,9.968025 17.8963104,10.037525 C17.6461832,9.968025 17.4021628,10.081775 17.3624682,10.235275 C17.2456743,10.262275 17.2138677,10.299025 16.9263359,10.466025 C16.8846056,10.500525 16.8288804,10.520025 16.6245547,10.729025 L16.3225191,10.729025 C16.2889313,10.765025 16.2143766,10.794775 16.1227735,10.958275 L15.6548346,11.157275 C15.6311705,11.170275 15.5329517,11.368025 15.4535623,11.417275 C15.4367684,11.501275 15.4207379,11.563275 15.2538168,11.745275 C15.0823155,11.806775 15.0075064,11.700525 14.9517812,11.911025 L14.6187023,11.911025 L14.1482188,12.272025 L13.6818066,12.634525 C13.6891858,12.842025 13.7739186,12.814275 13.8151399,12.962775 C13.5947837,12.964775 13.5428753,13.045775 13.3790076,13.094525 C13.2548346,13.130275 13.0924936,13.056275 12.9787532,13.129025 L12.944402,13.423275 C12.8698473,13.416525 12.6838422,13.393275 12.6449109,13.357525 C12.412341,13.360275 12.4680662,13.391025 12.109542,13.753775 L11.7413486,13.849275 C11.7375318,14.063775 11.8077608,14.140275 11.9410941,14.342275 L11.3054707,14.377525 L11.069084,14.475525 L10.8052163,14.770025 C10.7304071,14.786525 10.6726463,14.826275 10.4347328,14.836775 L10.1344784,14.737775 C10.2449109,14.709275 10.2945293,14.636775 10.5031807,14.475525 L10.6688295,14.245525 L11.039313,13.947525 C11.1306616,13.855525 11.2085242,13.932525 11.5400763,13.784275 L11.6064885,13.487525 C11.7169211,13.465775 11.9540712,13.397775 12.3087786,12.962775 C12.3016539,12.887025 12.2935115,12.883025 12.4428753,12.700525 C12.6599237,12.711025 12.8332061,12.745275 12.9108142,12.569275 L12.9787532,12.307275 L13.3492366,12.272025 C13.4324427,12.227775 13.4950382,12.164025 13.614631,12.141525 L13.9820611,11.681775 C14.2451654,11.711025 14.4571247,11.651775 14.5187023,11.484775 L14.5187023,11.188025 C14.6963104,11.146775 14.8085242,11.032275 14.9517812,10.958275 L14.9517812,10.729025 L15.4535623,10.563275 C15.5548346,10.565775 15.6189567,10.565775 15.790458,10.661525 C15.9276081,10.646525 15.9795165,10.598025 16.0907125,10.466025 L16.3225191,10.300525 L16.5917303,10.005275 C16.6543257,9.961275 16.7479644,10.003025 17.0255725,9.741025 L17.3914758,9.609275 C17.5026718,9.597275 17.5744275,9.571775 17.6278626,9.510275 L17.7298982,9.215025 L18.128626,9.250275 C18.1240458,9.076525 18.098855,9.122275 17.8963104,8.950775 C17.8314249,8.905775 17.7596692,8.990275 17.6278626,8.921525 C17.5064885,8.890025 17.3983461,8.960525 17.1604326,9.049525 L16.9263359,9.117025 C16.8846056,9.151525 16.9240458,9.194025 16.757888,9.412025 L16.3568702,9.576275 L16.0907125,9.741025 L15.2209924,10.169525 C15.1446565,10.233025 15.0667939,10.235275 14.9189567,10.235275 L14.65,10.729025 L14.1138677,10.892275 C14.0072519,10.937775 14.0583969,10.865275 13.7151399,11.287775 L13.2456743,11.484775 L13.0115776,11.812025 L12.7449109,11.943025 L12.5115776,12.239775 C12.4680662,12.293025 12.3474555,12.273525 12.109542,12.404525 C12.0586514,12.573025 11.9777354,12.484025 11.9739186,12.733525 C11.8535623,12.735525 11.7550891,12.725775 11.406743,12.863775 L11.1726463,12.962775 C11.133715,13.119775 11.0408397,13.117775 11.0064885,13.258275 L10.5031807,13.357525 C10.4561069,13.525275 10.371374,13.459275 10.2357506,13.684525 L10.0695929,13.916025 L9.73396947,14.277775 L9.36577608,14.475525 C9.28816794,14.546275 9.22328244,14.613525 9.0975827,14.639025 L9.13091603,14.902525 L8.79631043,14.935525 C8.74974555,14.946775 8.64770992,15.038025 8.59656489,15.195275 C8.4586514,15.205025 8.43804071,15.243525 8.26272265,15.428525 L7.89529262,15.627025 L7.89529262,15.890025 C7.71386768,15.890025 7.5673028,15.884525 7.39122137,16.049275 L7.15737913,16.153525 L6.95814249,16.448525 L6.45356234,16.810275 L6.42226463,17.269525 L5.81997455,17.203525 C5.79707379,17.278525 5.79020356,17.283775 5.72073791,17.434275 L5.28486005,17.892775 C5.20776081,17.987025 5.25050891,17.910025 4.98307888,18.124275 L4.71692112,18.518025 C4.55585242,18.548025 4.4759542,18.534025 4.31361323,18.550275 L3.91183206,18.814775 C3.92379135,18.925775 3.93931298,18.967525 3.98053435,19.178025 L3.37875318,19.372775 C3.2721374,19.432275 3.1721374,19.530775 3.00979644,19.666525 L2.70801527,20.062775 L2.23905852,20.456775 C2.05992366,20.497025 2.06145038,20.614775 1.83956743,20.753525 L1.70470738,20.983525 L1.60470738,21.212525 L1.16857506,21.542775 L0.868320611,21.933775 L0.702926209,22.232775 L0.299618321,22.364525 C0.120483461,22.432025 0.0922391858,22.295775 0.000127226463,22.596025 C0.0647582697,22.798025 0.153307888,22.654275 0.433715013,22.856025 L0.667048346,23.020025 L0.901145038,23.187025 L1.4721374,23.119025 C1.51793893,23.131525 1.67188295,23.179525 1.70470738,23.284525 L2.00572519,23.515775 L2.40699746,23.479775 C2.46323155,23.515775 2.41234097,23.599025 2.57391858,23.779525 L3.04262087,23.812525 L3.34312977,23.940525 C3.41997455,23.888775 3.50318066,23.995025 3.57722646,24.141025 C3.76526718,24.173275 3.88587786,24.143525 4.11463104,24.073775 L4.51412214,24.039275 L4.78104326,24.039275 L5.48765903,23.974775 C5.6148855,23.933775 5.77366412,24.067775 5.95407125,23.876775 C6.01513995,23.830275 6.10979644,23.873025 6.32073791,23.779525 L6.4894402,23.546525 L6.7240458,23.546525 L7.22430025,23.479775 L7.45916031,23.448275 L7.82735369,23.380775 L7.82735369,23.151775 L8.12938931,23.187025 L8.36170483,23.055275 C8.49147583,23.015525 8.64312977,23.161525 8.72938931,23.187025 C8.8062341,23.204775 8.86195929,23.172775 9.06704835,22.922525 C9.07926209,22.898025 9.18053435,22.738275 9.4673028,22.494275 C9.62964377,22.463525 9.76068702,22.355525 9.83244275,22.232775 C10.0031807,22.230525 10.2159033,22.220025 10.3354962,22.265025 C10.339313,22.374275 10.3540712,22.415525 10.369084,22.494275 L10.6031807,22.463525 C10.6222646,22.355525 10.6398219,22.316025 10.4683206,22.130775 C10.4896947,21.993025 10.5459288,21.996775 10.6688295,21.903775 L10.8708651,21.672275 L10.9036896,21.346775 L11.2382952,21.181275 L11.6736641,20.918275 C11.8047074,20.931025 11.8237913,20.973025 11.9082697,21.082025 C12.0388041,21.074775 12.1006361,21.044025 12.4772265,20.785775 L12.8790076,20.456775 L12.7767176,20.196025 C12.9408397,20.196025 13.0253181,20.244775 13.2792621,20.098025 L13.6818066,19.832775 C13.7204835,19.761775 13.68257,19.759275 13.8502545,19.604275 C13.998855,19.572025 14.0332061,19.527775 14.18257,19.404275 C14.2100509,19.364525 14.2062341,19.268775 14.55,19.110525 L14.8176845,19.110525 L15.2894402,19.144275 L15.1538168,18.912025 C15.1301527,18.817775 15.0449109,18.698775 15.1209924,18.616275 C15.169084,18.442025 15.2080153,18.543775 15.4207379,18.421775 L15.6548346,18.287525 L16.0558524,18.124275 L16.2889313,18.124275 C16.2899491,18.242525 16.3087786,18.300275 16.3225191,18.386275 L16.5589059,18.287525 C16.5497455,18.102525 16.48257,18.092025 16.3568702,17.992525 L16.1227735,17.827775 C16.2075064,17.790775 16.2828244,17.734025 16.4573791,17.630525 L17.1276081,17.596275 C17.1459288,17.523525 17.1550891,17.517525 17.4617048,17.135525 L17.8609415,16.841025 L18.3970738,16.841025 L18.463486,16.611775 L18.4314249,16.283025 C18.5601781,16.158025 18.730916,16.285525 18.9321883,16.153525 C19.023028,16.116775 19.1502545,16.206525 19.2693384,16.215525 C19.3057252,16.174275 19.3576336,16.157275 19.5367684,16.019275 L19.7357506,15.627025 L20.1367684,15.328775 C20.3586514,15.275025 20.2382952,15.179775 20.3372774,15.067525 C20.4609415,14.889275 20.5980916,15.065275 20.8723919,14.737775 C20.9464377,14.725775 21.0342239,14.675525 21.1385496,14.737775 L21.6774809,14.706275 L22.0108142,14.475525 C22.1311705,14.466525 22.3034351,14.426275 22.4446565,14.277775 L22.9141221,14.180525 L23.1153944,13.947525 C23.1894402,13.903275 23.2952926,13.949025 23.5179389,13.784275 L23.8487277,13.653025 L24.1187023,13.487525 L24.2535623,13.258275 C24.3253181,13.179775 24.4525445,13.078025 24.3861323,12.765775 C24.4739186,12.656275 24.4329517,12.749025 24.7194656,12.569275 L24.9558524,12.469025 C24.9756997,12.441275 25.0001272,12.482525 24.8886768,12.272025 C24.8558524,12.182775 24.903944,12.081025 24.8207379,12.010525 C24.7599237,11.941025 24.7545802,11.988025 24.8207379,11.713775 C24.8947837,11.760525 25.0136132,11.738775 25.0891858,11.777525 L25.3209924,11.943025 L25.5558524,11.876525 C25.728117,11.869025 25.9461832,11.846525 26.2586514,11.647275 C26.3227735,11.597775 26.3678117,11.567775 26.2937659,11.417275 C26.296056,11.307275 26.3097964,11.269025 26.3296438,11.188025 C26.4212468,11.166525 26.4660305,11.137275 26.6940204,10.958275 L26.9958015,10.824775 C27.1118321,10.761775 27.1749364,10.727525 27.4296438,10.627775 L27.596056,10.235275 C27.6049618,9.986525 27.7553435,9.789775 27.5624682,9.643525 C27.5693384,9.471275 27.5774809,9.513275 27.630916,9.412025 C27.8156489,9.414275 27.9245547,9.414275 28.0311705,9.347025 C28.2812977,9.362025 28.5586514,9.520025 28.8006361,9.085525 L28.4016539,8.786525 L28.0647583,8.493025 L28.4673028,8.557525 L28.9003817,8.655525 L28.7693384,8.327525 C28.7502545,8.303525 28.6762087,8.183775 28.7693384,8.031525 L29.6382952,8.031525 C29.7489822,7.955275 29.8762087,7.816775 29.9052163,7.670775 C30.0553435,7.671525 30.2474555,7.677275 30.5408397,7.899775 C30.5568702,7.956775 30.7034351,8.234525 30.8756997,8.294525 C30.9069975,8.317025 30.9367684,8.395025 31.0777354,8.589775 L31.3446565,8.754525 L31.4466921,9.085525 L31.7105598,9.250275 L32.044402,9.643525 L32.2464377,9.872025 L32.5484733,10.235275 L32.78257,10.529775 L33.0171756,10.729025 C33.2184478,10.769525 33.1726463,10.857025 33.2848601,11.022525 C33.3756997,11.042025 33.4243003,11.072775 33.5189567,11.188025 L33.8207379,11.353025 C33.9153944,11.410525 34.1400763,11.388025 34.2896947,11.386525 C34.2993639,11.444275 34.3520356,11.585775 34.6571247,11.777525 C34.7388041,11.850275 34.8293893,11.947025 34.9573791,11.976025 C35.0016539,12.150775 35.155598,12.157275 35.3250636,12.307275 L35.6611959,12.369525 L35.9599237,12.469025 C36.6889313,13.127525 36.9390585,13.004525 37.6326972,13.423275 L38.2349873,13.523025 L38.703944,13.849275 L39.1072519,13.983525 L39.4723919,14.245525 L39.9082697,14.507025 L40.1744275,14.671275 L40.8454198,14.868275 L41.0779898,15.067525 C41.1571247,15.132525 41.255598,15.132525 41.4125954,15.195275 L42.1138677,15.328775 C42.1695929,15.535525 42.4433842,15.565525 42.7505089,15.757275 L43.3863868,15.920525 L43.6212468,16.049275 L44.0573791,16.215525 L44.3232824,16.253275 L44.7594148,16.675525 L45.0599237,16.810275 L45.2937659,17.005775 L45.8632316,17.203525 L46.0965649,17.302525 L47.1326972,17.434275 C47.3209924,17.438775 47.3461832,17.504025 47.4695929,17.663525 C47.503944,17.707775 47.5589059,17.723525 47.7006361,17.827775 L47.9362595,18.092025 C48.5316794,18.608275 49.6113232,18.828275 50.3454198,19.144275 L50.5787532,19.178025 C50.7128499,19.188525 50.85,19.214025 50.9141221,19.305525 C51.0405852,19.307525 51.174173,19.317525 51.2159033,19.044025 C51.2199746,19.036025 51.2937659,18.987025 51.6840967,18.912025 C51.6840967,18.747275 51.6627226,18.465775 51.5835878,18.386275 C51.5874046,18.128025 51.571374,18.224025 51.9189567,17.992525 L52.3520356,17.731025 C52.4456743,17.691275 52.5561069,17.542275 52.7881679,17.367025 C53.0395674,17.358025 53.1243003,17.224025 53.2561069,16.938525 C53.2767176,16.862025 53.3522901,16.773775 53.390458,16.710025 C53.4970738,16.716025 53.5466921,16.711525 53.6250636,16.773775 L53.9248092,16.773775 L54.1924936,16.741525 L54.1237913,16.448525 L54.3609415,16.349025 L54.6268448,16.381025 L55.0950382,16.381025 L55.7660305,16.412525 L56.0304071,16.514525 C56.1632316,16.554275 56.3583969,16.468775 56.433715,16.448525 L56.7357506,16.448525 C56.7647583,16.439775 56.9125954,16.308525 57.1375318,16.381025 L57.771883,16.741525 L58.2726463,16.773775 L58.6751908,16.841025 L58.9100509,17.005775 L59.2125954,17.037275 C59.3367684,17.097275 59.4161578,17.154275 59.5449109,17.302525 L59.779771,17.434275 L60.147201,17.760275 C60.5110687,17.750525 60.4324427,17.877775 60.5148855,18.124275 L60.8143766,18.059025 C60.9510178,18.057025 61.2543257,18.066525 61.3176845,18.124275 L61.55,18.124275 L62.1874046,18.581775 C62.2820611,18.625275 62.3276081,18.645525 62.4886768,18.550275 C62.7494911,18.581775 62.6693384,18.700275 62.7896947,18.847025 L63.1907125,19.077025 L63.4924936,19.178025 L63.8601781,19.275525 L64.1924936,19.340525 C64.2215013,19.351775 64.1924936,19.381775 64.3617048,19.569775 L64.5965649,19.666525 L64.8321883,19.765525 C64.9181934,19.803525 64.9464377,19.700275 65.2332061,19.899525 L65.5647583,19.966775 C65.6349873,20.020025 65.6701018,20.026775 65.7996183,20.028275 L65.8637405,20.237275 C65.8734097,20.239525 65.8858779,20.227525 66.2006361,20.523525 L66.4026718,20.785775 L66.8388041,20.918275 C66.9385496,20.960025 66.939313,21.050775 67.2375318,21.246025 C67.2611959,21.261275 67.2611959,21.289525 67.6064885,21.510525 C67.701145,21.558525 67.7787532,21.623775 67.9082697,21.806525 C67.928117,21.869525 67.8734097,21.903775 68.1423664,22.200525 C68.2148855,22.276775 68.3199746,22.300025 68.4100509,22.364525 L68.6441476,22.561525 L68.944402,22.957775 L69.4118321,23.380775 L69.5161578,23.615525 L69.7807888,23.812525 L70.0492366,23.974775 C70.1321883,24.023025 70.2398219,23.969775 70.4851145,24.073775 C70.5057252,24.152275 70.5164122,24.145775 70.9197201,24.202025 C70.896056,24.091025 70.842112,24.048275 70.7505089,23.940525 C70.7215013,23.813275 70.579771,23.645275 70.3502545,23.418525 Z M48.2024173,11.417275 L48.1711196,11.547525 C48.1382952,11.595525 47.890458,11.642025 47.7693384,11.812025 C47.8151399,11.899025 48.0879135,11.965525 48.306743,11.812025 C48.3937659,11.771525 48.5446565,11.806775 48.671883,11.745275 L48.5057252,11.484775 C48.4110687,11.445775 48.3456743,11.417275 48.2024173,11.417275 Z M41.5466921,4.219775 L41.6810433,3.923025 L41.7815522,3.462525 L42.1138677,3.231025 C42.233715,3.246775 42.3024173,3.213025 42.3830789,3.198775 C42.3846056,3.052775 42.406743,3.019775 42.4517812,2.936775 C42.6675573,2.934525 42.703944,2.903775 42.8520356,2.870025 C42.9036896,2.698525 43.0090331,2.751775 43.0181934,2.509025 C43.1019084,2.492525 43.1423664,2.478275 43.252799,2.478275 C43.2896947,2.431025 43.3451654,2.414525 43.5204835,2.280525 L43.587659,1.983275 L44.3919847,1.884275 L44.6586514,1.819775 L45.2937659,1.721025 L45.3594148,1.784775 L46.6013995,1.918025 L46.9665394,1.950275 L47.2006361,2.015525 L47.4695929,2.181025 L47.9698473,2.379525 L48.2024173,2.574775 C48.2731552,2.688775 48.1535623,2.721775 48.4057252,2.904525 L48.4729008,3.231025 C48.5225191,3.405525 48.4003817,3.404775 48.3716285,3.462525 C48.3334606,3.543525 48.355598,3.727025 48.4057252,3.825025 L48.2024173,4.053525 C48.0695929,4.139025 48.0125954,4.455775 47.9362595,4.646025 C47.8667939,4.667025 47.8278626,4.643775 47.6693384,4.775525 C47.5520356,4.858025 47.3637405,4.909025 47.0998728,5.007025 L46.933715,5.369525 C46.828626,5.395025 46.7782443,5.468525 46.5334606,5.568025 L46.1973282,5.666275 C45.3265903,6.355275 43.4276081,5.945525 42.5171756,5.532775 L42.2497455,5.401025 C42.2215013,5.362775 42.2253181,5.264025 42.0125954,5.204025 L41.6474555,4.876025 L41.614631,4.646025 C41.5680662,4.547775 41.4538168,4.404025 41.5466921,4.219775 Z M41.512341,5.829525 C41.5955471,5.882525 41.7784987,5.973275 41.8820611,5.994275 C41.9225191,6.142525 42.0103053,6.109525 42.0484733,6.258025 C42.1955471,6.290275 42.2899491,6.368775 42.3830789,6.453275 L42.6507634,6.621275 L42.8848601,6.848275 L43.1522901,6.980775 L43.3863868,7.143275 L44.0573791,7.209275 L44.4902036,7.344025 L45.2611959,7.344025 L45.7291349,7.306525 C45.8243003,7.278025 45.8914758,7.316275 45.9968193,7.209275 L46.3665394,7.079525 L46.6319338,7.111025 L46.9993639,7.079525 L47.2683206,6.750025 L47.5001272,6.488775 C47.6586514,6.395775 47.9164122,6.477525 48.1054707,6.421275 C48.2731552,6.370275 48.3655216,6.268525 48.6057252,6.192775 L49.006743,5.861775 L49.2080153,5.599525 C49.244402,5.544775 49.3611959,5.515775 49.4418575,5.500525 L49.5762087,5.204025 L49.9092875,5.037775 L50.279771,4.876025 L50.4454198,4.580025 C50.5176845,4.488775 50.5917303,4.429525 50.747201,4.416775 C50.7639949,4.333525 50.8576336,4.076025 50.8159033,4.022775 L50.8159033,3.727025 C51.0558524,2.436275 50.6395674,2.458025 50.1449109,1.686525 L50.0092875,1.325525 C49.9871501,1.288025 49.7782443,1.178775 49.7087786,1.160775 C49.6828244,1.029525 49.6388041,0.957025 49.4731552,0.901525 L49.0729008,0.567525 C48.4189567,0.136775 47.8889313,0.222275 47.1326972,0.275525 L46.8003817,0.307525 C46.7576336,0.314275 46.7431298,0.255275 46.4655216,0.339775 L46.2316794,0.240025 C46.1851145,0.211025 46.1003817,0.218525 45.8952926,0.011775 C45.803944,-0.022725 45.4036896,0.018525 45.2937659,0.142025 C45.1856234,0.192775 45.0599237,0.093275 44.7922392,0.240025 L44.5260814,0.405775 L44.187659,0.567525 L43.8886768,0.602775 L43.6212468,0.963025 L43.2194656,1.228275 L42.8848601,1.325525 C42.8589059,1.534525 42.703944,1.576525 42.55,1.784775 C42.4006361,1.825025 42.3380407,1.925525 42.0810433,2.245275 L41.8151399,2.408525 C41.6611959,2.452775 41.6678117,2.547775 41.614631,2.673775 L41.512341,2.970275 C41.4886768,3.010025 41.3227735,3.037775 41.1136132,3.298525 L41.0138677,3.658025 C41.1571247,4.339525 41.0131043,4.920275 41.2487277,5.568025 L41.512341,5.829525 Z M49.3764631,11.417275 C49.3543257,11.512525 49.28257,11.612025 49.3764631,11.777525 C49.5609415,11.781275 49.823028,11.811275 49.8764631,11.614275 L49.5426209,11.287775 L49.3764631,11.417275 Z" id="Fill-1" style="fill:currentColor"></path>
        </g>
    </g>
</svg>