<?xml version="1.0" standalone="no"?>
<!DOCTYPE svg PUBLIC "-//W3C//DTD SVG 20010904//EN"
 "http://www.w3.org/TR/2001/REC-SVG-20010904/DTD/svg10.dtd">
<svg version="1.0" xmlns="http://www.w3.org/2000/svg"
 width="700.000000pt" height="700.000000pt" viewBox="0 0 700.000000 700.000000"
 preserveAspectRatio="xMidYMid meet">
<metadata>
Created by potrace 1.11, written by Peter Selinger 2001-2013
</metadata>
<g transform="translate(0.000000,700.000000) scale(0.100000,-0.100000)"
fill="#000000" stroke="none">
<path d="M694 5779 c-114 -21 -233 -119 -274 -224 l-23 -60 -1 -1865 c-1
-1321 2 -1880 9 -1915 15 -65 38 -112 78 -155 74 -82 135 -107 279 -115 57 -3
123 -7 148 -10 25 -2 86 -7 135 -10 50 -3 101 -8 115 -10 14 -2 52 -6 85 -10
33 -3 74 -8 90 -10 17 -3 53 -7 80 -10 28 -3 64 -7 80 -10 17 -3 48 -7 70 -10
43 -6 318 -53 350 -60 11 -3 31 -7 45 -9 44 -7 211 -46 334 -77 254 -64 559
-168 736 -252 101 -48 159 -56 215 -31 34 15 73 18 270 19 203 1 235 -1 270
-16 64 -29 117 -24 214 20 47 22 111 50 141 64 91 40 378 137 510 172 59 16
301 75 325 80 77 16 455 84 500 90 28 4 63 8 78 10 15 2 46 7 67 10 59 8 108
13 180 21 36 3 73 8 82 9 10 2 57 6 105 9 49 4 113 8 143 11 30 3 98 7 150 10
53 3 111 9 129 15 86 24 168 96 212 185 l24 50 2 1895 c2 1456 0 1904 -9 1935
-28 92 -101 176 -194 223 -44 22 -147 44 -179 38 -11 -2 -65 -7 -120 -10 -55
-4 -111 -9 -125 -11 -14 -2 -52 -6 -85 -10 -76 -7 -142 -15 -180 -20 -16 -2
-57 -7 -90 -10 -33 -4 -100 -13 -150 -20 -49 -8 -110 -17 -135 -20 -25 -4 -63
-10 -85 -15 -22 -5 -62 -12 -90 -16 -27 -3 -59 -8 -70 -11 -11 -2 -31 -6 -45
-9 -14 -3 -56 -12 -95 -20 -38 -8 -81 -17 -95 -20 -141 -28 -595 -159 -635
-183 -5 -3 -16 -6 -23 -7 -6 -1 -31 -11 -55 -22 -23 -11 -67 -29 -97 -42 -54
-22 -191 -91 -260 -130 -19 -11 -48 -32 -65 -47 l-30 -28 -223 -1 c-223 0
-224 0 -232 22 -19 50 -325 197 -606 292 -109 37 -304 92 -429 122 -168 40
-268 62 -295 65 -8 2 -31 5 -50 9 -112 21 -262 46 -310 51 -30 4 -57 8 -60 10
-3 2 -34 6 -70 10 -36 4 -67 8 -70 10 -3 1 -41 6 -85 10 -44 4 -82 8 -85 10
-3 2 -44 6 -92 10 -47 3 -95 8 -106 10 -21 4 -147 14 -237 19 -27 2 -68 0 -91
-5z"/>
</g>
</svg>
