<svg xmlns="http://www.w3.org/2000/svg" xmlns:xlink="http://www.w3.org/1999/xlink" viewBox="0, 0, 400,400"><title>JIRA backlog icon</title><path d="M190.101 44.941 C 183.594 46.695,53.831 111.914,50.782 114.963 C 43.108 122.637,43.852 135.665,52.344 142.289 C 56.873 145.823,183.647 219.433,188.281 221.220 C 191.576 222.491,194.308 222.877,200.000 222.877 C 210.574 222.877,208.674 223.842,280.469 181.993 C 357.857 136.882,354.687 139.199,354.688 127.748 C 354.688 115.968,357.593 117.861,279.805 78.965 C 204.589 41.355,204.099 41.169,190.101 44.941 M262.603 98.879 C 314.277 124.718,321.119 128.345,319.827 129.209 C 307.671 137.339,202.076 197.656,200.000 197.656 C 197.924 197.656,92.329 137.339,80.173 129.209 C 77.735 127.579,193.976 69.635,199.807 69.574 C 203.677 69.534,207.244 71.198,262.603 98.879 M52.696 193.286 C 45.675 196.344,43.064 206.051,47.563 212.368 C 49.395 214.942,174.502 288.493,183.203 292.112 C 189.967 294.926,201.439 294.926,208.203 292.112 C 217.252 288.348,342.017 214.934,343.935 212.244 C 349.394 204.592,344.014 193.290,334.476 192.374 C 329.654 191.910,336.703 188.079,259.579 233.083 C 210.357 261.804,197.918 268.750,195.701 268.750 C 193.485 268.750,180.598 261.552,129.482 231.761 C 51.894 186.542,59.467 190.337,52.696 193.286 M53.609 254.674 C 44.504 257.564,42.379 270.980,50.112 276.750 C 54.755 280.214,180.054 352.837,184.041 354.375 C 189.446 356.459,201.974 356.454,207.390 354.365 C 211.395 352.820,339.869 278.209,342.491 275.906 C 350.632 268.751,344.761 254.387,333.668 254.323 L 329.257 254.297 263.958 292.383 C 209.021 324.425,198.190 330.469,195.703 330.469 C 193.217 330.469,182.412 324.440,127.621 292.482 C 58.965 252.436,59.615 252.768,53.609 254.674 " stroke="none" fill="#131372" fill-rule="evenodd"></path></svg>