<svg xmlns="http://www.w3.org/2000/svg" viewBox="0 0 300 300" ><title>Doc Gov Logo</title><path fill="#b7cdd7" d="M140 80h21v179h-21z"/><path fill="#bfd3dc" d="M269 52c-25 2-76 7-107 26-2 2-4 4-4 6v170c0 5 6 8 11 6 32-16 79-21 102-22 8 0 14-7 14-14V67c0-8-7-15-16-15zM140 78C109 59 58 54 33 52c-9 0-16 7-16 15v157c0 7 6 14 14 14 23 1 69 6 102 22 5 2 10-1 10-6V84l-3-6z"/><path fill="#03a64f" d="M188 111c-3-1-9 4-10 5l-5 7c-2 1-2 7 0 9l7 5h12c3-1 8-5 10-8 3-1 4-3 4-8-1-5-4-6-6-9h-9l-3-1z"/><path fill="#bfd3dc" d="M187 117c-3 0-5 0-7 2l-6 5c0 1-1 4 1 6 3 2 5 4 9 3 4 0 7-1 9-4l4-4-1-5-4-3h-5z"/><path fill="#03a64f" d="M187 158l-8-1-37-18c-4-1-12-9-17-9-6-1-42 18-49 23-6 4-42 39-45 43 7 2 13 6 17 5 13-1 27-13 38-23 11-9 21-14 29-17 2-4 14-22 18-20 6 1 9 9 15 12 5 4 52 29 57 30 2 0 2-3 5-5 2-4 8-7 10-8 7 0 28 9 36 17l18 15c-1-4-10-14-15-18-6-5-25-17-32-20-6-3-11-8-17-9s-17 5-23 3z"/><path fill="#bfd3dc" d="M113 135s-15 7-20 11c-5 2-13 9-17 10-2 2-23 20-24 23l-1 1 5-4 14-11 10-9 13-9 11-6c3-2 9-4 9-6z"/></svg>