<svg xmlns="http://www.w3.org/2000/svg" viewBox="0 0 200 80"><title>SOV Logo</title><path fill="currentColor" d="M127 4c-2-1-7 3-8 4s-4 5-4 5c-1 1-1 6 0 7 0 1 5 4 6 4 1 1 7 1 9 0s6-4 8-6c2-1 3-2 3-6-1-4-3-5-5-7-2-1-5-1-7 0-1-1-2-1-2-1z"/><path fill="#fff" d="M126 9c-2 0-4 0-5 1-1 0-4 3-5 4 0 1-1 3 1 5 2 1 4 3 7 2 3 0 5-1 7-3 1-1 3-2 3-3 0-2 0-3-1-4 0-1-2-1-3-2h-4z"/><path fill="currentColor" d="M126 41c-1 0-3-1-6-1-10-5-27-13-29-14-3-1-9-7-13-7-5-1-33 14-38 18-5 3-33 30-35 33 5 2 10 5 13 4 10-1 21-10 30-18 8-7 16-11 22-13 2-3 11-17 14-16 5 1 7 7 12 10 4 3 40 22 44 23 2 0 2-2 4-4 2-3 6-5 8-6 5 0 22 7 28 13 4 3 12 10 14 12-1-3-8-11-12-14-4-4-19-13-25-16-4-2-8-6-13-7s-13 4-18 3z"/><path fill="#fff" d="M69 23s-12 5-16 8c-4 2-10 7-13 8-2 2-18 16-19 18-1 0-1 1-1 1s1 0 4-3c4-3 8-7 11-9 2-2 6-5 8-7 3-2 8-6 10-7s6-3 9-5c2-1 7-3 7-4z"/>Vermont Department of Health</svg>